<?xml version="1.0" encoding="UTF-8" standalone="no"?>
<!-- Created with Inkscape (http://www.inkscape.org/) -->

<svg
   xmlns:dc="http://purl.org/dc/elements/1.1/"
   xmlns:cc="http://creativecommons.org/ns#"
   xmlns:rdf="http://www.w3.org/1999/02/22-rdf-syntax-ns#"
   xmlns:svg="http://www.w3.org/2000/svg"
   xmlns="http://www.w3.org/2000/svg"
   xmlns:sodipodi="http://sodipodi.sourceforge.net/DTD/sodipodi-0.dtd"
   xmlns:inkscape="http://www.inkscape.org/namespaces/inkscape"
   width="210mm"
   height="297mm"
   viewBox="0 0 210 297"
   version="1.1"
   id="svg11104"
   inkscape:version="0.92.5 (2060ec1f9f, 2020-04-08)"
   sodipodi:docname="face_flight-helmet.svg">
  <defs
     id="defs11098" />
  <sodipodi:namedview
     id="base"
     pagecolor="#ffffff"
     bordercolor="#666666"
     borderopacity="1.0"
     inkscape:pageopacity="0.0"
     inkscape:pageshadow="2"
     inkscape:zoom="1.4"
     inkscape:cx="337.51427"
     inkscape:cy="619.23048"
     inkscape:document-units="mm"
     inkscape:current-layer="layer1"
     showgrid="false"
     inkscape:snap-global="false"
     inkscape:window-width="1274"
     inkscape:window-height="2126"
     inkscape:window-x="1282"
     inkscape:window-y="28"
     inkscape:window-maximized="0" />
  <metadata
     id="metadata11101">
    <rdf:RDF>
      <cc:Work
         rdf:about="">
        <dc:format>image/svg+xml</dc:format>
        <dc:type
           rdf:resource="http://purl.org/dc/dcmitype/StillImage" />
        <dc:title></dc:title>
      </cc:Work>
    </rdf:RDF>
  </metadata>
  <g
     inkscape:label="Layer 1"
     inkscape:groupmode="layer"
     id="layer1">
    <path
       style="fill:#000000;fill-opacity:1;stroke:#000000;stroke-width:0.31268474px;stroke-linecap:butt;stroke-linejoin:miter;stroke-opacity:1"
       d="m 40.895759,44.684295 c -4.128987,9.866924 8.124325,15.674146 15.414458,19.255113 7.290133,3.580966 18.962354,5.927272 24.22272,0.226528 5.260367,-5.700743 2.422272,-22.42654 2.422272,-22.42654 0,0 -37.930464,-6.922025 -42.05945,2.944899 z"
       id="path11673-4"
       inkscape:connector-curvature="0"
       sodipodi:nodetypes="zzccz" />
    <path
       style="fill:#ffffff;fill-opacity:1;stroke:#000000;stroke-width:0.26458332px;stroke-linecap:butt;stroke-linejoin:miter;stroke-opacity:1"
       d="m 44.979167,46.023809 c -3.543624,8.231692 6.972547,13.076491 13.229166,16.063989 6.256619,2.987498 16.27408,4.944955 20.788691,0.188987 4.514611,-4.755968 2.078868,-18.709821 2.078868,-18.709821 0,0 -32.553101,-5.774847 -36.096725,2.456845 z"
       id="path11673"
       inkscape:connector-curvature="0"
       sodipodi:nodetypes="zzccz" />
    <g
       id="g11781">
      <g
         transform="matrix(0.37745968,0.01290257,-0.0129451,0.37870347,-30.669019,-77.22523)"
         inkscape:label="face_left"
         id="layer1-6-5"
         style="display:inline;stroke-width:1.8763274">
        <g
           id="g4878-0-3-7"
           style="stroke-width:12.6764679;stroke-miterlimit:4;stroke-dasharray:none"
           transform="matrix(1.0071005,-0.20451411,0.20451411,1.0071005,-123.01294,47.336774)"
           inkscape:export-filename="/home/nwillems/Documents/fdf/efteraarslejr15/udkast/001.png"
           inkscape:export-xdpi="90"
           inkscape:export-ydpi="90">
          <g
             style="stroke-width:12.6764679"
             id="g5010-85-6-4">
            <path
               sodipodi:nodetypes="cscac"
               style="fill:#ffffff;fill-opacity:1;stroke:#000000;stroke-width:12.6764679;stroke-linecap:butt;stroke-linejoin:round;stroke-miterlimit:4;stroke-dasharray:none;stroke-opacity:1"
               d="m 442.53112,559.61041 c 0,0 -19.52071,180.46968 -105.90065,174.37485 -86.37993,-6.09482 -91.59474,-214.04676 -91.59474,-214.04676 0,0 69.21933,-16.8979 103.10722,-10.25807 34.97328,6.8525 94.38817,49.92998 94.38817,49.92998 z"
               id="path3995-2-3-7-1"
               inkscape:connector-curvature="0" />
            <ellipse
               ry="7.4190459"
               rx="13.864707"
               cy="583.52063"
               cx="-353.22348"
               style="fill:#000000;fill-opacity:1;fill-rule:nonzero;stroke:none;stroke-width:12.6764679;stroke-linecap:square;stroke-linejoin:bevel;stroke-miterlimit:4;stroke-dasharray:none;stroke-dashoffset:0;stroke-opacity:1"
               id="path3997-5-1-5-8"
               transform="matrix(-0.99989863,0.01423846,0.01443545,0.9998958,0,0)" />
            <ellipse
               ry="12.817216"
               rx="8.6066036"
               cy="575.34003"
               cx="-290.18146"
               style="fill:#000000;fill-opacity:1;fill-rule:nonzero;stroke:none;stroke-width:12.6764679;stroke-linecap:square;stroke-linejoin:bevel;stroke-miterlimit:4;stroke-dasharray:none;stroke-dashoffset:0;stroke-opacity:1"
               id="path3999-3-1-3-5"
               transform="matrix(-0.99989863,0.01423846,0.01443546,0.9998958,0,0)" />
          </g>
          <path
             style="fill:none;stroke:#000000;stroke-width:12.6764679;stroke-linecap:round;stroke-linejoin:miter;stroke-miterlimit:4;stroke-dasharray:none;stroke-opacity:1"
             d="m 402.01929,646.04195 c -47.60233,116.0784 -105.26988,31.1306 -105.26988,31.1306"
             id="path4013-9-1-8-6-5-9"
             inkscape:connector-curvature="0"
             sodipodi:nodetypes="cc"
             inkscape:export-filename="/home/nwillems/Documents/fdf/efteraarslejr15/udkast/001.png"
             inkscape:export-xdpi="90"
             inkscape:export-ydpi="90" />
        </g>
      </g>
      <g
         id="g11761">
        <g
           id="g11742">
          <path
             sodipodi:nodetypes="cczcsssczcsccsccc"
             inkscape:connector-curvature="0"
             id="path11667"
             d="m 55.5625,174.7247 -7.134301,-13.65439 c 0,0 -7.130661,3.90955 -8.268229,-11.76451 -1.137568,-15.67406 5.71689,-14.78832 5.71689,-14.78832 L 44.60119,121.24107 C 43.615381,110.98135 61.232143,95.160714 87.3125,96.294642 c 26.08036,1.13393 36.44048,11.565088 44.79017,26.836308 2.24497,4.10595 -0.42522,14.03237 -0.42522,14.03237 0,0 5.36936,-3.32062 5.43341,12.52046 0.064,15.84108 -6.28386,15.54427 -6.28386,15.54427 0,0 -0.71199,10.56898 -1.74814,11.9535 -4.43052,5.92012 -5.10267,-1.70091 -5.10267,-1.70091 l 2.45685,-50.08183 c 0,0 -32.316969,-4.9137 -44.22322,-5.85863 -13.23069,-1.05005 -29.671131,7.37053 -29.671131,7.37053 l 9.827381,44.03423 c -3.81604,8.65848 -5.681835,5.00039 -6.80357,3.77976 z"
             style="fill:#ffffff;fill-opacity:1;stroke:#000000;stroke-width:3;stroke-linecap:butt;stroke-linejoin:round;stroke-miterlimit:4;stroke-dasharray:none;stroke-opacity:1" />
          <path
             inkscape:connector-curvature="0"
             id="path11669"
             d="m 62.933034,100.45238 c 12.284226,2.64583 10.772323,18.52083 10.772323,18.52083"
             style="fill:none;stroke:#000000;stroke-width:2;stroke-linecap:butt;stroke-linejoin:miter;stroke-miterlimit:4;stroke-dasharray:none;stroke-opacity:1" />
          <path
             inkscape:connector-curvature="0"
             id="path11671"
             d="m 111.125,101.01935 c -9.44941,-0.37798 -14.174109,19.27678 -14.174109,19.27678"
             style="fill:none;stroke:#000000;stroke-width:2;stroke-linecap:butt;stroke-linejoin:miter;stroke-miterlimit:4;stroke-dasharray:none;stroke-opacity:1"
             sodipodi:nodetypes="cc" />
        </g>
        <g
           id="g11749">
          <path
             sodipodi:nodetypes="zzccz"
             inkscape:connector-curvature="0"
             id="path11673-8"
             d="m 58.61527,133.78663 c -2.481413,5.76423 4.882513,9.15679 9.263697,11.24878 4.381184,2.09198 11.395888,3.46269 14.557233,0.13233 3.161346,-3.33035 1.455724,-13.10151 1.455724,-13.10151 0,0 -22.795235,-4.04382 -25.276654,1.7204 z"
             style="fill:none;fill-opacity:1;stroke:#000000;stroke-width:2.10074329;stroke-linecap:butt;stroke-linejoin:round;stroke-miterlimit:4;stroke-dasharray:none;stroke-opacity:1" />
          <path
             sodipodi:nodetypes="zzccz"
             inkscape:connector-curvature="0"
             id="path11673-8-8"
             d="m 114.69209,134.31622 c 2.48142,5.76422 -4.88251,9.15678 -9.2637,11.24877 -4.38118,2.09199 -11.39588,3.4627 -14.557229,0.13234 -3.161345,-3.33036 -1.455723,-13.10151 -1.455723,-13.10151 0,0 22.795232,-4.04382 25.276652,1.7204 z"
             style="fill:none;fill-opacity:1;stroke:#000000;stroke-width:2.10074329;stroke-linecap:butt;stroke-linejoin:round;stroke-miterlimit:4;stroke-dasharray:none;stroke-opacity:1" />
          <path
             inkscape:connector-curvature="0"
             id="path11720"
             d="m 85.044641,135.41518 3.212799,0.37797"
             style="fill:none;stroke:#000000;stroke-width:3;stroke-linecap:butt;stroke-linejoin:miter;stroke-miterlimit:4;stroke-dasharray:none;stroke-opacity:1" />
          <path
             sodipodi:nodetypes="ccccc"
             inkscape:connector-curvature="0"
             id="path11722"
             d="m 114.33779,133.33631 16.81995,-8.69346 0.37797,5.10269 -15.875,8.12648 z"
             style="fill:#000000;fill-opacity:1;stroke:#000000;stroke-width:0.26458332px;stroke-linecap:butt;stroke-linejoin:miter;stroke-opacity:1" />
          <path
             sodipodi:nodetypes="ccccc"
             inkscape:connector-curvature="0"
             id="path11722-8"
             d="m 45.083205,132.57096 13.040188,5.29167 0.37797,-5.10269 -13.607143,-6.04761 z"
             style="fill:#000000;fill-opacity:1;stroke:#000000;stroke-width:0.26458332px;stroke-linecap:butt;stroke-linejoin:miter;stroke-opacity:1" />
        </g>
      </g>
    </g>
  </g>
</svg>
